<svg width="32px" height="32px" viewBox="0 0 32 32" version="1.1" xmlns="http://www.w3.org/2000/svg" xmlns:xlink="http://www.w3.org/1999/xlink">
    <defs></defs>
    <g stroke="none" stroke-width="1" fill="none" fill-rule="evenodd" opacity="0.5">
        <g transform="translate(-1098.000000, -928.000000)" fill="#FFFFFF">
            <g transform="translate(40.000000, 928.000000)">
                <g transform="translate(915.000000, 0.000000)">
                    <path d="M143,4.0042577 C143,1.79276724 144.789028,0 147.004258,0 L170.995742,0 C173.207233,0 175,1.78902751 175,4.0042577 L175,27.9957423 C175,30.2072328 173.210972,32 170.995742,32 L147.004258,32 C144.792767,32 143,30.2109725 143,27.9957423 L143,4.0042577 Z M148,27 L153,27 L153,11.9964444 L148,11.9964444 L148,27 Z M150.503854,9.91022222 C148.979367,9.91022222 147.75,8.67733333 147.75,7.15733333 C147.75,5.63822222 148.979367,4.40533333 150.503854,4.40533333 C152.022119,4.40533333 153.254153,5.63822222 153.254153,7.15733333 C153.254153,8.67733333 152.022119,9.91022222 150.503854,9.91022222 Z M166,27 L166,19.8408889 C166,17.8859863 166.02339,15.792 163.450012,15.792 C161.117475,15.792 160.740576,17.7217778 160.740576,19.7146667 L160.740576,27 L156,27 L156,11.9964444 L160.54946,11.9964444 L160.54946,14.0844444 L160.615239,14.0844444 C161.248146,12.8835556 162.796633,11.6177778 165.200012,11.6177778 C169.911498,11.6177778 170.799522,14.7795556 171,18.8924444 L171,27 L166,27 Z"></path>
                </g>
            </g>
        </g>
    </g>
</svg>