<svg width="32px" height="32px" viewBox="0 0 32 32" version="1.1" xmlns="http://www.w3.org/2000/svg" xmlns:xlink="http://www.w3.org/1999/xlink">
    <defs></defs>
    <g stroke="none" stroke-width="1" fill="none" fill-rule="evenodd">
        <g transform="translate(-704.000000, -614.000000)" fill="#FFFFFF">
            <g transform="translate(40.000000, 614.000000)">
                <path d="M688.941287,14.5504561 C683.889778,11.5505029 675.557427,11.2746667 670.735158,12.7382456 C669.960608,12.9732865 669.141708,12.5361404 668.907041,11.7617778 C668.672374,10.9868538 669.109146,10.1685146 669.88407,9.93309942 C675.419696,8.25281871 684.622035,8.57730994 690.437427,12.0293801 C691.133942,12.4429474 691.362433,13.3425029 690.949614,14.0378947 C690.536421,14.7344094 689.636117,14.9640234 688.941287,14.5504561 L688.941287,14.5504561 Z M688.77586,18.9937778 C688.421427,19.5688421 687.66952,19.7492398 687.095205,19.396117 C682.883743,16.8074854 676.461848,16.0574503 671.479392,17.5698713 C670.833216,17.7650526 670.150924,17.4008889 669.95462,16.7558363 C669.76,16.109848 670.124351,15.4286784 670.769404,15.2321871 C676.461099,13.5049357 683.536842,14.3414269 688.373895,17.3140585 C688.948211,17.6677427 689.128982,18.4200234 688.77586,18.9937778 L688.77586,18.9937778 Z M686.858292,23.2610058 C686.576655,23.7228538 685.975392,23.8675088 685.515228,23.5860585 C681.835228,21.3368889 677.203275,20.8290058 671.748304,22.0749474 C671.222643,22.195462 670.698667,21.8661053 670.578713,21.3404444 C670.458386,20.8149708 670.78662,20.2909942 671.313404,20.1710409 C677.282994,18.8064561 682.403556,19.3936842 686.534175,21.9177544 C686.994713,22.1990175 687.139743,22.800655 686.858292,23.2610058 L686.858292,23.2610058 Z M679.671205,0.657590643 C671.016421,0.657590643 664,7.67382456 664,16.3286082 C664,24.9843275 671.016421,32 679.671205,32 C688.326363,32 695.342409,24.9843275 695.342409,16.3286082 C695.342409,7.67382456 688.326363,0.657590643 679.671205,0.657590643 L679.671205,0.657590643 Z"></path>
            </g>
        </g>
    </g>
</svg>