<svg width="32px" height="32px" viewBox="0 0 32 32" version="1.1" xmlns="http://www.w3.org/2000/svg" xmlns:xlink="http://www.w3.org/1999/xlink">
    <defs></defs>
    <g stroke="none" stroke-width="1" fill="none" fill-rule="evenodd" opacity="0.5">
        <g transform="translate(-1004.000000, -928.000000)" fill="#FFFFFF">
            <g transform="translate(40.000000, 924.000000)">
                <g transform="translate(915.000000, 4.000000)">
                    <path d="M65,0 C56.1626667,0 49,7.164 49,16 C49,24.836 56.1626667,32 65,32 C73.8373333,32 81,24.836 81,16 C81,7.164 73.8373333,0 65,0 L65,0 Z M78.18,15.2546667 C74.7466667,14.692 71.5893333,14.6613333 68.7093333,15.1573333 C68.384,14.4066667 68.0466667,13.6573333 67.6866667,12.9173333 C70.7666667,11.584 73.24,9.77333333 75.084,7.47466667 C76.884,9.6 78.0133333,12.3 78.18,15.2546667 L78.18,15.2546667 Z M73.0573333,5.54533333 C71.4506667,7.61733333 69.2333333,9.256 66.4093333,10.452 C65.0546667,7.97066667 63.5053333,5.55066667 61.7586667,3.20133333 C62.7973333,2.93866667 63.88,2.78266667 65,2.78266667 C68.0333333,2.78266667 70.824,3.82133333 73.0573333,5.54533333 L73.0573333,5.54533333 Z M59.036,4.22133333 C60.8106667,6.544 62.384,8.93866667 63.752,11.396 C60.512,12.3493333 56.644,12.8386667 52.1733333,12.8693333 C53.096,9.08933333 55.6413333,5.94533333 59.036,4.22133333 L59.036,4.22133333 Z M51.7826667,16 L51.8,15.6586667 C56.932,15.652 61.3586667,15.0613333 65.0666667,13.896 C65.3773333,14.5293333 65.6746667,15.1653333 65.96,15.8053333 C61.4533333,17.2146667 57.74,20.1013333 54.844,24.4453333 C52.9346667,22.1533333 51.7826667,19.2093333 51.7826667,16 L51.7826667,16 Z M56.888,26.4133333 C59.5133333,22.296 62.864,19.616 67.0186667,18.3773333 C68.256,21.604 69.164,24.924 69.7426667,28.324 C65.2773333,30.0453333 60.472,29.212 56.888,26.4133333 L56.888,26.4133333 Z M72.336,26.9866667 C71.752,23.8493333 70.896,20.7826667 69.776,17.7906667 C72.2773333,17.4373333 75.0293333,17.5293333 78.0413333,18.052 C77.4586667,21.7666667 75.3373333,24.9746667 72.336,26.9866667 L72.336,26.9866667 Z"></path>
                </g>
            </g>
        </g>
    </g>
</svg>