<svg width="36px" height="29px" viewBox="0 0 36 29" version="1.1" xmlns="http://www.w3.org/2000/svg" xmlns:xlink="http://www.w3.org/1999/xlink">
    <defs></defs>
    <g stroke="none" stroke-width="1" fill="none" fill-rule="evenodd" opacity="0.5">
        <g transform="translate(-955.000000, -928.000000)" fill="#FFFFFF">
            <g transform="translate(40.000000, 928.000000)">
                <g transform="translate(915.000000, 0.000000)">
                    <path d="M31.7579282,4.58576907 C33.2829145,3.67965775 34.4539449,2.24491624 35.0054208,0.535417548 C33.5784045,1.37430799 31.9977175,1.98360324 30.3153736,2.31200659 C28.9680237,0.889142939 27.0485241,0 24.924262,0 C20.8452101,0 17.5381982,3.2778988 17.5381982,7.32094087 C17.5381982,7.89473305 17.6036431,8.45351475 17.7295292,8.98932388 C11.5911335,8.68402362 6.1489301,5.76937861 2.50613409,1.34011018 C1.87038297,2.42138736 1.50615604,3.67900512 1.50615604,5.02068162 C1.50615604,7.56058656 2.81018325,9.80145649 4.79196752,11.1142867 C3.58116976,11.0763037 2.44240097,10.7469867 1.44650499,10.198647 C1.44597827,10.2291901 1.44597827,10.2598637 1.44597827,10.2906678 C1.44597827,13.8378417 3.99187973,16.7968656 7.3706573,17.4693354 C6.75083946,17.6366697 6.09836497,17.72608 5.42469,17.72608 C4.94879842,17.72608 4.48607484,17.6802654 4.03520246,17.5947709 C4.97500274,20.5034117 7.70262263,22.6200209 10.934577,22.6791492 C8.40684736,24.6426514 5.22216614,25.8130778 1.76187863,25.8130778 C1.1657632,25.8130778 0.577811917,25.7784884 0,25.710876 C3.2685614,27.7880663 7.15088335,29 11.3218479,29 C24.907012,29 32.3358718,17.8443365 32.3358718,8.16988181 C32.3358718,7.85244264 32.3287611,7.5367003 32.3145397,7.22278533 C33.7574893,6.19058593 35.0097663,4.90111982 36,3.43296366 C34.6754307,4.01524003 33.2519697,4.40877585 31.7579282,4.58576907 Z" id="icon_twitter"></path>
                </g>
            </g>
        </g>
    </g>
</svg>