<svg width="32px" height="32px" viewBox="0 0 32 32" version="1.1" xmlns="http://www.w3.org/2000/svg" xmlns:xlink="http://www.w3.org/1999/xlink">
    <defs></defs>
    <g stroke="none" stroke-width="1" fill="none" fill-rule="evenodd" opacity="0.5">
        <g transform="translate(-1004.000000, -928.000000)" fill="#FFFFFF">
            <g transform="translate(40.000000, 928.000000)">
                <g transform="translate(915.000000, 0.000000)">
                    <path d="M81,15.9997148 C81,24.8365361 73.8370426,32 65.0001426,32 C56.1632426,31.9997148 49,24.8365361 49,15.9997148 C49,7.16374915 56.1632426,0 65.0004278,0 C73.8370426,0 81,7.16374915 81,15.9997148 Z M72.3085155,14.934027 C70.5100182,14.4171753 69.8695409,14.1306567 69.8695409,13.5581785 C69.8695409,12.6033028 71.3009743,12.2438267 71.4633406,12.219228 C72.373462,12.0892464 73.5137958,12.5471172 73.8814396,13.6140846 L76.3285325,12.9004435 C75.5601917,10.5565814 73.2879326,9.51840562 71.0809099,9.83259776 C68.8228578,10.1529396 67.3748978,11.7294908 67.3748978,13.557899 C67.3748978,16.0177662 69.7651625,16.7255371 71.5587309,17.2423887 C73.4459498,17.7857958 73.9945161,17.9795103 73.9945161,18.6464698 C73.9945161,19.210003 73.647748,19.7352405 72.7263189,19.9700461 C70.8938986,20.4351846 68.4972553,19.7822016 67.8301035,18.7057302 C67.4383947,18.073712 67.0376977,17.2513337 66.6700539,16.3213362 C65.5781401,13.5634896 64.0820502,9.78843196 59.7799216,9.78843196 C57.5383961,9.78843196 53.4444444,10.8347141 53.4444444,16.7397931 C53.4444444,19.1840067 55.613485,22.2222222 59.700768,22.2222222 C63.1304673,22.2222222 63.7274536,21.014651 63.8637254,20.8008103 L62.7442674,18.6889584 C62.7158533,18.7275336 61.6738092,20.0687203 59.700768,20.0687203 C56.4804053,20.0687203 56.0083832,16.7769707 56.0083832,16.7397931 C56.0083832,13.6741836 57.3673316,12.200779 59.7799216,12.200779 C62.1266953,12.200779 63.0800178,14.1686728 64.2681916,17.1649588 C64.6732377,18.1944692 65.115396,19.1121674 65.6164122,19.9225259 C66.6767225,21.6321336 68.9652183,22.1842061 71.2624123,22.1842061 C71.963487,22.1842061 72.7700999,22.2225018 73.3937606,22.063449 C75.4503045,21.5384909 76.5555555,20.3365104 76.5555555,18.6464698 C76.5561353,16.0736723 74.1539831,15.4659732 72.3085155,14.934027 Z"></path>
                </g>
            </g>
        </g>
    </g>
</svg>